<svg width="34" height="33" viewBox="0 0 34 33" fill="none" xmlns="http://www.w3.org/2000/svg">
<path d="M33.2585 16.5C33.2585 7.38632 25.8722 0 16.7585 0C7.64488 0 0.25856 7.38632 0.25856 16.5C0.25856 25.6136 7.64488 32.9999 16.7585 32.9999C16.8552 32.9999 16.9519 32.9999 17.0486 32.9935V20.1545H13.5037V16.023H17.0486V12.9808C17.0486 9.45526 19.2013 7.53456 22.3466 7.53456C23.8548 7.53456 25.1503 7.64413 25.5241 7.69569V11.3824H23.3585C21.6505 11.3824 21.3154 12.1945 21.3154 13.3869V16.0166H25.4081L24.8732 20.148H21.3154V32.3619C28.2118 30.3832 33.2585 24.0345 33.2585 16.5Z" fill="#2A9B28"/>
</svg>
