<svg width="33" height="33" viewBox="0 0 33 33" fill="none" xmlns="http://www.w3.org/2000/svg">
<path d="M19.6262 16.6353C19.6262 18.3653 18.2239 19.7676 16.4939 19.7676C14.764 19.7676 13.3616 18.3653 13.3616 16.6353C13.3616 14.9054 14.764 13.5031 16.4939 13.5031C18.2239 13.5031 19.6262 14.9054 19.6262 16.6353Z" fill="#2A9B28"/>
<path d="M23.8193 11.0934C23.6687 10.6854 23.4285 10.3161 23.1164 10.0129C22.8132 9.70079 22.4442 9.46058 22.0359 9.31C21.7048 9.18141 21.2074 9.02834 20.2912 8.98664C19.3001 8.94144 19.003 8.9317 16.4939 8.9317C13.9847 8.9317 13.6875 8.94119 12.6967 8.98639C11.7805 9.02834 11.2829 9.18141 10.952 9.31C10.5437 9.46058 10.1744 9.70079 9.87153 10.0129C9.55939 10.3161 9.31918 10.6851 9.16836 11.0934C9.03976 11.4245 8.88669 11.9222 8.84499 12.8383C8.79979 13.8292 8.79005 14.1263 8.79005 16.6356C8.79005 19.1446 8.79979 19.4418 8.84499 20.4329C8.88669 21.349 9.03976 21.8464 9.16836 22.1775C9.31918 22.5858 9.55914 22.9549 9.87128 23.258C10.1744 23.5701 10.5435 23.8104 10.9517 23.9609C11.2829 24.0898 11.7805 24.2428 12.6967 24.2845C13.6875 24.3297 13.9844 24.3392 16.4937 24.3392C19.0032 24.3392 19.3004 24.3297 20.291 24.2845C21.2071 24.2428 21.7048 24.0898 22.0359 23.9609C22.8554 23.6448 23.5032 22.9971 23.8193 22.1775C23.9479 21.8464 24.1009 21.349 24.1429 20.4329C24.1881 19.4418 24.1976 19.1446 24.1976 16.6356C24.1976 14.1263 24.1881 13.8292 24.1429 12.8383C24.1012 11.9222 23.9481 11.4245 23.8193 11.0934ZM16.4939 21.4606C13.8288 21.4606 11.6684 19.3004 11.6684 16.6353C11.6684 13.9702 13.8288 11.81 16.4939 11.81C19.1588 11.81 21.3192 13.9702 21.3192 16.6353C21.3192 19.3004 19.1588 21.4606 16.4939 21.4606ZM21.51 12.7469C20.8872 12.7469 20.3823 12.242 20.3823 11.6193C20.3823 10.9965 20.8872 10.4916 21.51 10.4916C22.1328 10.4916 22.6377 10.9965 22.6377 11.6193C22.6374 12.242 22.1328 12.7469 21.51 12.7469Z" fill="#2A9B28"/>
<path d="M16.4939 0.270691C7.45736 0.270691 0.12928 7.59878 0.12928 16.6353C0.12928 25.6719 7.45736 33 16.4939 33C25.5305 33 32.8586 25.6719 32.8586 16.6353C32.8586 7.59878 25.5305 0.270691 16.4939 0.270691ZM25.8341 20.5095C25.7887 21.5098 25.6296 22.1928 25.3974 22.7906C24.9092 24.0528 23.9114 25.0506 22.6492 25.5388C22.0516 25.771 21.3684 25.9298 20.3683 25.9755C19.3663 26.0212 19.0462 26.0322 16.4942 26.0322C13.9419 26.0322 13.6221 26.0212 12.6198 25.9755C11.6197 25.9298 10.9365 25.771 10.339 25.5388C9.7117 25.3028 9.14387 24.933 8.67443 24.4548C8.19649 23.9856 7.82668 23.4176 7.59071 22.7906C7.35848 22.193 7.19942 21.5098 7.15397 20.5098C7.10778 19.5074 7.09704 19.1873 7.09704 16.6353C7.09704 14.0834 7.10778 13.7632 7.15372 12.7612C7.19917 11.7609 7.35798 11.0779 7.59021 10.4801C7.82618 9.85311 8.19624 9.28503 8.67443 8.81584C9.14362 8.33765 9.7117 7.96784 10.3387 7.73187C10.9365 7.49964 11.6194 7.34083 12.6198 7.29513C13.6218 7.24944 13.9419 7.23845 16.4939 7.23845C19.0459 7.23845 19.366 7.24944 20.3681 7.29538C21.3684 7.34083 22.0514 7.49964 22.6492 7.73162C23.2762 7.96759 23.8442 8.33765 24.3137 8.81584C24.7916 9.28528 25.1617 9.85311 25.3974 10.4801C25.6299 11.0779 25.7887 11.7609 25.8344 12.7612C25.8801 13.7632 25.8908 14.0834 25.8908 16.6353C25.8908 19.1873 25.8801 19.5074 25.8341 20.5095Z" fill="#2A9B28"/>
</svg>
