<svg width="167" height="34" viewBox="0 0 167 34" fill="none" xmlns="http://www.w3.org/2000/svg">
<path fill-rule="evenodd" clip-rule="evenodd" d="M153.232 15.7964C153.232 15.7833 153.225 15.7309 153.227 15.7432C153.157 15.1343 153.01 14.5369 152.788 13.9654C152.479 13.1574 152.003 12.4233 151.392 11.8105C150.802 11.23 150.093 10.7837 149.314 10.5022C148.504 10.2075 147.648 10.0595 146.785 10.065C145.938 10.0611 145.098 10.2092 144.303 10.5022C143.526 10.7863 142.818 11.2323 142.225 11.8105C141.608 12.4234 141.123 13.1569 140.801 13.9654C140.566 14.5525 140.411 15.1683 140.339 15.7964C140.294 16.1759 140.272 16.5578 140.273 16.94C140.253 17.9543 140.426 18.9633 140.782 19.913C141.09 20.7193 141.566 21.4509 142.178 22.0595C142.771 22.6362 143.479 23.0799 144.256 23.3609C145.067 23.6556 145.923 23.8036 146.785 23.798C147.663 23.8052 148.535 23.6572 149.361 23.3609C150.137 23.0844 150.843 22.6401 151.428 22.0595C152.029 21.4481 152.496 20.7167 152.796 19.913C153.146 18.9618 153.316 17.9535 153.296 16.94C153.297 16.5578 153.275 16.176 153.232 15.7964ZM150.024 18.6878C149.884 19.173 149.653 19.6273 149.344 20.027C149.053 20.3973 148.678 20.6935 148.25 20.8912C147.787 21.0922 147.287 21.196 146.782 21.196C146.277 21.196 145.778 21.0922 145.315 20.8912C144.89 20.6918 144.519 20.3958 144.229 20.027C143.921 19.6274 143.69 19.173 143.551 18.6878C143.386 18.12 143.307 17.531 143.314 16.94C143.313 16.558 143.345 16.1767 143.41 15.8002C143.446 15.598 143.493 15.3978 143.551 15.2007C143.689 14.7121 143.919 14.2545 144.229 13.8523C144.52 13.4824 144.891 13.1837 145.315 12.9788C145.775 12.7621 146.278 12.6546 146.787 12.6648C147.291 12.6585 147.79 12.7637 148.249 12.9727C148.677 13.1704 149.052 13.4665 149.343 13.8369C149.653 14.2395 149.884 14.6973 150.023 15.186C150.083 15.3904 150.131 15.5981 150.167 15.8079C150.23 16.1833 150.26 16.5633 150.259 16.9438C150.266 17.5335 150.187 18.1211 150.024 18.6878ZM137.822 10.3659V15.7964V23.5317H134.879V10.3659H137.822ZM132.614 19.9223C132.642 20.4665 132.54 21.0096 132.317 21.5067C132.093 22.0038 131.755 22.4407 131.33 22.7814C130.189 23.5409 128.828 23.8986 127.461 23.798C126.937 23.8018 126.413 23.767 125.894 23.6941C125.477 23.6344 125.064 23.5485 124.658 23.4371C124.343 23.3509 124.035 23.2431 123.735 23.1146C123.512 23.0185 123.295 22.9106 123.083 22.7914L123.912 20.4364C125.002 21.0189 126.226 21.307 127.461 21.2722C127.807 21.2796 128.152 21.2447 128.489 21.1683C128.723 21.1149 128.944 21.018 129.141 20.8828C129.293 20.776 129.411 20.6273 129.481 20.4548C129.546 20.2788 129.578 20.0923 129.575 19.9046C129.573 19.6892 129.517 19.4777 129.411 19.2899C129.306 19.1022 129.154 18.9443 128.971 18.831C128.322 18.4327 127.623 18.1221 126.893 17.9074C126.466 17.7535 126.038 17.5793 125.61 17.3848C125.191 17.1954 124.802 16.9458 124.456 16.6437C124.18 16.3992 123.943 16.1136 123.755 15.7971L123.75 15.7879L123.745 15.7802C123.704 15.7094 123.664 15.6378 123.626 15.5632C123.399 15.0793 123.289 14.5489 123.305 14.0147C123.296 13.4484 123.412 12.8871 123.645 12.3708C123.867 11.8885 124.196 11.4631 124.607 11.1271C125.054 10.7678 125.567 10.4998 126.117 10.3383C126.767 10.1462 127.441 10.0533 128.118 10.0627C129.464 10.0347 130.795 10.3482 131.986 10.974L131.14 13.3113C130.748 13.1106 130.341 12.9423 129.922 12.808C129.398 12.6512 128.853 12.5775 128.306 12.5894C127.782 12.5503 127.258 12.6521 126.787 12.8842C126.636 12.9794 126.513 13.1134 126.432 13.2722C126.351 13.4311 126.314 13.6088 126.325 13.7869C126.318 14.002 126.377 14.2142 126.495 14.3941C126.624 14.5736 126.788 14.7256 126.976 14.8413C127.203 14.9836 127.443 15.1042 127.693 15.2015C127.964 15.3092 128.262 15.42 128.589 15.5339C128.795 15.6109 128.99 15.6878 129.179 15.7648L129.229 15.7856L129.263 15.7994C129.667 15.9634 130.033 16.1257 130.362 16.2866C130.824 16.505 131.248 16.7969 131.617 17.1509C131.948 17.4773 132.203 17.8731 132.363 18.3099C132.54 18.8286 132.625 19.3743 132.614 19.9223ZM120.875 10.3659V23.5317H117.93V10.3659H120.875ZM115.231 13.2135C114.959 13.9831 114.063 16.3582 113.986 16.5575C113.532 17.7227 113.054 18.9007 112.551 20.0916C112.048 21.2824 111.539 22.4284 111.023 23.5294H108.192C107.676 22.4284 107.166 21.2824 106.663 20.0916C106.16 18.9002 104.259 14.0055 103.974 13.2135C103.59 12.1494 103.259 11.2002 102.983 10.3659H106.229C106.481 11.1263 106.755 11.9473 107.05 12.8287C107.346 13.7092 108.601 17.2741 108.852 17.9682C109.142 18.7656 109.413 19.4556 109.664 20.0385C109.903 19.4561 110.17 18.7661 110.466 17.9682C110.723 17.2756 111.105 16.212 111.372 15.4593C111.68 14.5871 111.982 13.7102 112.278 12.8287C112.574 11.9473 112.848 11.1263 113.098 10.3659H116.232C115.942 11.2017 115.609 12.1517 115.231 13.2158V13.2135ZM60.5191 10.3659V15.7964V23.5317H58.0471C57.2047 22.0248 56.2924 20.5369 55.3104 19.068C54.5838 17.9798 53.4587 16.4928 52.6298 15.4508C52.4759 15.2676 52.3304 15.0837 52.1773 14.9028V23.5287H49.2712V10.3659H51.6678C52.0834 10.7841 52.5426 11.2972 53.0454 11.9052C53.5482 12.5132 54.0613 13.1625 54.5846 13.8531C55.0064 14.4103 55.4258 14.9875 55.8437 15.5786L55.9699 15.7579L55.9784 15.7702L55.9976 15.7971C56.0453 15.8641 56.0931 15.9318 56.14 16.0003C56.6556 16.7417 57.14 17.4541 57.593 18.1375V10.3644L60.5191 10.3659ZM47.1001 21.0429V23.5317H37.8332V15.7964V10.3659H46.666V12.8549H40.7777V15.4385H46.0049V15.7964V17.8743H40.7777V21.0459L47.1001 21.0429ZM35.6637 21.0429V23.5317H26.3967V10.3659H35.2288V12.8549H29.3405V15.4385H34.5685V15.7964V17.8743H29.3405V21.0459L35.6637 21.0429ZM23.7731 22.0595C23.5089 21.5603 23.2351 21.079 22.9519 20.6157C22.6687 20.1524 22.3826 19.7091 22.0938 19.2858C21.8034 18.8615 21.5266 18.4846 21.2634 18.1552C21.9846 17.8801 22.6151 17.4098 23.0843 16.7969C23.308 16.4984 23.4697 16.1583 23.5599 15.7964V15.7918V15.7856V15.7733C23.6654 15.3727 23.7172 14.9599 23.7138 14.5457C23.7591 13.9104 23.6386 13.2743 23.3639 12.6996C23.0892 12.125 22.6698 11.6316 22.1469 11.2679C20.7787 10.483 19.2105 10.1164 17.6362 10.2136C17.0949 10.2136 16.4815 10.2392 15.796 10.2906C15.1276 10.3391 14.4628 10.4277 13.805 10.556V23.5325H16.7496V18.7263H18.2026C18.4535 19.0306 18.7052 19.3692 18.9576 19.7422C19.21 20.1152 19.4648 20.5113 19.7218 20.9305C19.9783 21.3486 20.23 21.7791 20.4768 22.2219C20.7223 22.666 20.9648 23.1016 21.2034 23.5302H24.5057C24.2815 23.05 24.0376 22.5598 23.7738 22.0595H23.7731ZM17.5831 16.3697H16.7527V12.798C16.9066 12.7849 17.0605 12.7726 17.2337 12.7595C17.4068 12.7464 17.5954 12.741 17.8093 12.741C18.546 12.6978 19.2819 12.838 19.9512 13.1489C20.1908 13.2856 20.3864 13.4879 20.5151 13.7319C20.6438 13.9759 20.7002 14.2515 20.6777 14.5265C20.6943 14.761 20.6585 14.9963 20.5729 15.2153C20.4873 15.4342 20.354 15.6314 20.1828 15.7925C20.1137 15.852 20.0396 15.9053 19.9612 15.9518C19.2146 16.2837 18.398 16.4272 17.5831 16.3697ZM167 10.3667V23.5325H164.527C163.685 22.0256 162.773 20.5377 161.79 19.0688C161.056 17.9682 159.902 16.4459 159.069 15.4046C158.932 15.2391 158.797 15.0706 158.658 14.9067V23.5325H155.751V10.3659H158.149C158.564 10.7841 159.024 11.2972 159.527 11.9052C160.03 12.5132 160.543 13.1625 161.066 13.8531C161.541 14.4795 162.013 15.1276 162.482 15.7971H162.458L162.618 16.0003C163.134 16.7417 163.619 17.4541 164.072 18.1375V10.3644L167 10.3667ZM11.076 16.5798V23.0962C10.5225 23.2895 9.9545 23.4388 9.37743 23.5426C8.42473 23.7161 7.45732 23.7957 6.48907 23.7803C5.57873 23.7925 4.67387 23.6379 3.81928 23.324C3.04678 23.0374 2.34736 22.5832 1.77132 21.9941C1.18673 21.3804 0.740569 20.6484 0.462969 19.8476C0.140715 18.913 -0.0155449 17.9293 0.00121896 16.9408C0.00154741 16.5586 0.0238842 16.1767 0.0681563 15.7971L0.0720081 15.7633C0.142968 15.1641 0.2904 14.5764 0.510694 14.0147C0.823213 13.2082 1.29846 12.4747 1.9068 11.8598C2.49895 11.2701 3.20993 10.8133 3.99242 10.5199C4.80983 10.2127 5.67667 10.0583 6.54985 10.0643C7.10896 10.0598 7.66754 10.101 8.21995 10.1874C8.65342 10.2555 9.08215 10.3509 9.50364 10.473C9.80757 10.56 10.104 10.6711 10.3902 10.8054C10.6211 10.9193 10.7897 11.0078 10.8905 11.0709L10.0439 13.446C9.60158 13.2144 9.13756 13.0267 8.65859 12.8857C8.10419 12.7226 7.5287 12.6424 6.95082 12.6479C6.40022 12.5966 5.84522 12.6737 5.32948 12.8733C4.81374 13.0728 4.35131 13.3892 3.97857 13.7977C3.53559 14.3783 3.25059 15.0636 3.15127 15.7871C3.09239 16.1691 3.06276 16.555 3.06272 16.9415C3.05736 17.5354 3.13511 18.127 3.29364 18.6993C3.4283 19.1921 3.65927 19.6532 3.97321 20.0562C4.27485 20.4368 4.66298 20.74 5.10532 20.9405C5.60449 21.1589 6.14519 21.266 6.68993 21.2545C7.01778 21.2545 7.29791 21.2476 7.53033 21.2353C7.73726 21.2258 7.94316 21.2 8.14606 21.1583V16.5798H11.076Z" fill="#2A9B28"/>
<path d="M73.3256 13.1335C73.7496 17.5526 79.1031 20.4903 84.4234 21.2853C83.7675 17.9127 83.436 14.4851 83.4337 11.0494C81.8852 10.6207 79.2208 10.0173 78.6436 9.89959C78.0029 9.77028 77.3509 9.7053 76.6972 9.70564C75.522 9.71718 73.0747 10.516 73.3256 13.1335ZM95.3265 15.8995C92.704 14.4322 89.9587 13.1962 87.1217 12.2053C86.9847 15.3537 86.3203 18.4568 85.1561 21.3853C90.4872 21.9794 95.5559 20.3833 95.3265 15.8956V15.8995ZM99.2739 16.9315C99.2739 20.2803 98.2809 23.5538 96.4205 26.3382C94.56 29.1226 91.9156 31.2927 88.8218 32.5743C85.7279 33.8558 82.3236 34.191 79.0392 33.5377C75.7548 32.8844 72.7379 31.2718 70.37 28.9039C68.0021 26.536 66.3895 23.5191 65.7362 20.2347C65.0829 16.9503 65.4182 13.546 66.6997 10.4521C67.9812 7.35831 70.1514 4.71396 72.9357 2.8535C75.7201 0.993043 78.9936 0 82.3424 0C86.8328 0.000204109 91.1392 1.78417 94.3143 4.95942C97.4894 8.13468 99.2732 12.4411 99.2732 16.9315H99.2739ZM69.0865 9.29386C69.7481 9.0282 70.4518 8.88255 71.1645 8.86368C72.3918 8.94782 73.6334 9.07738 74.8894 9.25234C74.3389 9.22002 73.7924 9.19819 73.2501 9.1869C71.7986 9.27156 68.828 10.4452 69.3082 13.77C70.9367 25.0379 96.7065 27.4691 96.6949 16.636C97.0135 16.8182 97.3291 17.0028 97.6416 17.1901C97.6416 17.1039 97.6416 17.0177 97.6416 16.9315C97.6405 13.5634 96.5279 10.2897 94.4765 7.61836C92.4252 4.94699 89.5496 3.02724 86.2958 2.15689C83.0421 1.28653 79.592 1.51423 76.4809 2.80465C73.3697 4.09508 70.7714 6.37606 69.0888 9.29386H69.0865ZM95.973 23.8789C89.0773 29.0353 71.2507 25.6128 67.0401 16.9523C67.0442 20.3875 68.2042 23.7214 70.3334 26.4172C72.4626 29.113 75.4371 31.0138 78.7779 31.8136C82.1187 32.6134 85.6315 32.2655 88.7506 30.8262C91.8697 29.3869 94.4138 26.9398 95.973 23.8789Z" fill="#2A9B28"/>
</svg>
