<svg width="34" height="33" viewBox="0 0 34 33" fill="none" xmlns="http://www.w3.org/2000/svg">
<path d="M17.1584 32.9999C26.2733 32.9999 33.6584 25.6148 33.6584 16.5C33.6584 7.38511 26.2733 0 17.1584 0C8.04357 0 0.658463 7.38511 0.658463 16.5C0.658463 25.6148 8.04357 32.9999 17.1584 32.9999ZM8.20857 16.1425L24.1173 10.0086C24.8557 9.74186 25.5005 10.1887 25.2613 11.3052L25.2627 11.3039L22.5539 24.0652C22.3532 24.97 21.8156 25.19 21.0634 24.7637L16.9384 21.7236L14.9488 23.6403C14.7288 23.8603 14.5432 24.046 14.1169 24.046L14.4098 19.8481L22.0548 12.9415C22.3876 12.6486 21.9806 12.4836 21.5419 12.7751L12.0943 18.7233L8.02157 17.4528C7.13745 17.1723 7.1182 16.5687 8.20857 16.1425Z" fill="#2A9B28"/>
</svg>
