<svg width="33" height="33" viewBox="0 0 33 33" fill="none" xmlns="http://www.w3.org/2000/svg">
<path d="M14.3263 19.7012L19.6495 16.6353L14.3263 13.5695V19.7012Z" fill="#2A9B28"/>
<path d="M16.3646 0.270691C7.32808 0.270691 0 7.59878 0 16.6353C0 25.6719 7.32808 33 16.3646 33C25.4012 33 32.7293 25.6719 32.7293 16.6353C32.7293 7.59878 25.4012 0.270691 16.3646 0.270691ZM26.5901 16.6521C26.5901 16.6521 26.5901 19.9709 26.1691 21.5713C25.9331 22.4472 25.2424 23.1379 24.3664 23.3736C22.7661 23.7949 16.3646 23.7949 16.3646 23.7949C16.3646 23.7949 9.97995 23.7949 8.36286 23.3569C7.4869 23.1212 6.79621 22.4302 6.56024 21.5543C6.13899 19.9709 6.13899 16.6353 6.13899 16.6353C6.13899 16.6353 6.13899 13.3168 6.56024 11.7164C6.79596 10.8404 7.50363 10.1328 8.36286 9.89706C9.96322 9.47581 16.3646 9.47581 16.3646 9.47581C16.3646 9.47581 22.7661 9.47581 24.3664 9.91379C25.2424 10.1495 25.9331 10.8404 26.1691 11.7164C26.607 13.3168 26.5901 16.6521 26.5901 16.6521Z" fill="#2A9B28"/>
</svg>
